PathFileType	4	(X/Y/Z)	40_2_35_p1_0-386.trc
DataRate	CameraRate	NumFrames	NumMarkers	Units	OrigDataRate	OrigDataStartFrame	OrigNumFrames
59.0	59.0	4	27	m	59.0	0	387
Frame#	Time	RHip			RKnee			RAnkle			RBigToe			RSmallToe			RHeel			LHip			LKnee			LAnkle			LBigToe			LSmallToe			LHeel			Neck			Head			Nose			RShoulder			RElbow			RWrist			RThumb			RIndex			RPinky			LShoulder			LElbow			LWrist			LThumb			LIndex			LPinky			
		X1	Y1	Z1	X2	Y2	Z2	X3	Y3	Z3	X4	Y4	Z4	X5	Y5	Z5	X6	Y6	Z6	X7	Y7	Z7	X8	Y8	Z8	X9	Y9	Z9	X10	Y10	Z10	X11	Y11	Z11	X12	Y12	Z12	X13	Y13	Z13	X14	Y14	Z14	X15	Y15	Z15	X16	Y16	Z16	X17	Y17	Z17	X18	Y18	Z18	X19	Y19	Z19	X20	Y20	Z20	X21	Y21	Z21	X22	Y22	Z22	X23	Y23	Z23	X24	Y24	Z24	X25	Y25	Z25	X26	Y26	Z26	X27	Y27	Z27	
0	0.0	0.3305038832976464	0.5621638612773239	0.8290625800877868	0.32371519330096304	0.727204884539818	1.2769771295909806	0.3225252229574893	0.867242963921655	1.668094080872998	0.3070295319665497	0.7384684572297423	1.7297642204172563	0.3678406180781206	0.7505600126940752	1.727287140541979	0.28308279666607117	0.9780717532765725	1.7419401662473173	0.15089165206697142	0.5723018839172578	0.8373063717875041	0.10669437808584763	0.7451387150965872	1.2718554868587417	0.10056579151885638	0.8512555976058339	1.6746715681106648	0.14240699897506584	0.6892462244235313	1.7065681106043327	0.08380315277475148	0.7246274610017355	1.715640674436591	0.09289519781428135	0.9246856071402989	1.738420598460043	0.250653943160798	0.4449034264206848	0.3014958725181448	0.2390463648930106	0.3393466607257949	0.08426708372345391	0.24698002993162302	0.30099321678854557	0.21331889289447326	0.3754905506809128	0.4743195209997632	0.3720819414616374	0.3839426331285684	0.5169189505115455	0.6470871477587821	0.297001108540986	0.36773072695917636	0.8140533022809983	0.23755690082118666	0.4755929152456812	0.9521650500951988	0.23308266472608585	0.474542461035518	0.9623417483567686	0.24354007533881178	0.4276521381222861	0.9507513478362102	0.09542091468689347	0.4813528605035871	0.386908922849785	0.09547620539746536	0.4711897610798843	0.6325217462550773	0.19589494414677128	0.364234218051615	0.8303473316144958	0.26858048248985766	0.4467493756217477	0.9220754251616773	0.27395807430007524	0.43474704113893575	0.957562862792613	0.2235353319312152	0.37784394544585004	0.9538523456730394
1	0.01694915254237288	0.33098153996356106	0.5617501929225011	0.8328676818588377	0.32345689350215345	0.7278331274245816	1.2856083027273555	0.3207843112996818	0.8545865314598126	1.6682618240681546	0.30694288856446944	0.7386352583773124	1.7299075068717873	0.3732925085906134	0.7350775030320976	1.7210590208201526	0.28073071418508005	0.957275045693384	1.725514719770512	0.15085387281434434	0.5723472373201689	0.8373314347777856	0.10675574159147508	0.7452676559091568	1.2717603122616625	0.1013102038007891	0.8629529405470063	1.6739098336215672	0.14240316393760272	0.6891676258150791	1.706487729622847	0.08380684067158752	0.7248309465409754	1.7157039400122511	0.09374729311073202	0.936965516344936	1.7381659270782004	0.25049299008429504	0.44316254842621505	0.29834605666917335	0.23896427724903935	0.33899107684968677	0.08428956719964331	0.24693482001380684	0.3009991346573159	0.21333516704917857	0.3754443936894001	0.4743340434772597	0.37210991272236343	0.3788606163832308	0.5300804516815573	0.6478815159615202	0.297779892164281	0.3697886468628591	0.8214992912443291	0.2400767168875427	0.4606007967856859	0.9555909465773162	0.2365411134453831	0.4606626146355325	0.9611664445343618	0.24234201437495767	0.4308787994380426	0.9493001924880174	0.09543031332598365	0.48152636612489597	0.3867937488123255	0.09538556047060767	0.4717284992446129	0.6327553891892642	0.19619918699467476	0.36651269630270444	0.8344666804992	0.2644336913414205	0.44854426907908423	0.9276800793776397	0.26937502345754166	0.4371289192228043	0.9625689655953624	0.22626579498551003	0.3796273238537454	0.9562200686172423
2	0.03389830508474576	0.33159527765732716	0.5634056311561042	0.8295394712467691	0.3265073226755416	0.7414487542704337	1.2800704360007873	0.3208215766927536	0.8546521177854128	1.6682339529548909	0.30694260878376856	0.7385953513001785	1.7299207826773506	0.3732019024042297	0.7349446542604108	1.7209785010444372	0.2815954009547567	0.9605230738831751	1.7307246407105674	0.1518668213316308	0.5737428115692168	0.8378667428222657	0.10734879996520351	0.7478505551554323	1.2771532325696533	0.10135696412179417	0.8629212938504341	1.6739047078781928	0.149036120884717	0.6739771348538336	1.7002485404845675	0.0841000198853007	0.7240818107547231	1.715443827298605	0.09365170055806453	0.9371476585693842	1.7384186834252606	0.25048308786044426	0.44309638632407866	0.29841625395994636	0.2388773389426735	0.3389219883381335	0.08433987322690001	0.2435789705707167	0.29967784966964084	0.21361866500033314	0.37540515181529666	0.4742781727072823	0.3721044575017205	0.3787183220563523	0.5304336887304842	0.6478417313954133	0.29512904035076126	0.39459314466882	0.8275197323334336	0.2400807149563912	0.46329349002726466	0.9646590789766014	0.2393801669666255	0.46362487017767373	0.9693752381846332	0.24649611524434534	0.4346891284483778	0.9535002424921295	0.09542098425283443	0.48137513856941305	0.38677411195525657	0.09474417021541763	0.47201961865819453	0.6287563355582462	0.1958900895087083	0.36931613292713206	0.8424311035946761	0.2709808811727464	0.43560765152311776	0.9225733546239973	0.2750227093697737	0.4250493354916621	0.9603867664579285	0.22720327268667487	0.39367397498538603	0.961155751766601
3	0.05084745762711865	0.33159452818559376	0.5634422596246331	0.8294082711619144	0.32699905660263057	0.7406876240898813	1.283649065988497	0.3232918999040091	0.8700028247036438	1.6731411698871046	0.3068842463843656	0.7384326876177973	1.7298565899697669	0.3730866865735842	0.7343473552799971	1.7208080004780413	0.28431082326632395	0.9768509091163647	1.7361014725842685	0.15183989725535563	0.5734105597543279	0.8375392148578913	0.10680323180347952	0.7450912455841402	1.2718711587436249	0.10134241033226193	0.8629167047379073	1.6738663042570263	0.14899810051986	0.6739049857421323	1.7001738102134032	0.08405140033203262	0.7240587626733781	1.7153813694445095	0.0937339101873464	0.9373520169196607	1.7383661417115428	0.25054441330744254	0.4446505437336409	0.3014874858303584	0.23897778294808755	0.34046910428957056	0.08724579492256594	0.24359475935279956	0.2996248680202387	0.2136281060457194	0.3704186667549191	0.4865309680273663	0.37160707135080995	0.3788187954162938	0.5305462852590017	0.6478100819291233	0.29655170940628944	0.39852674820856254	0.8387175180031357	0.2398506590502353	0.4627501839447449	0.9649154357650435	0.236193185466955	0.46182421647344357	0.9693502788244169	0.24703455555755738	0.43718325770935534	0.9579301288408879	0.09535751170306032	0.4812614314524119	0.3867833850480445	0.08863886527103036	0.4867757004973395	0.6335594539500777	0.1901718071886919	0.38104103920244736	0.8442062250600662	0.2707443503912808	0.43570114886433464	0.9227353864702815	0.26944940581341087	0.4370514488218985	0.9627131551703405	0.2270660755095272	0.39491326182725484	0.9613624187598776
